<?xml version="1.0" encoding="UTF-8" standalone="no"?>
<!-- Created with Inkscape (http://www.inkscape.org/) -->

<svg
   width="512"
   height="512"
   viewBox="0 0 135.46666 135.46667"
   version="1.1"
   id="svg1340"
   inkscape:export-filename="C:\Users\jeff\Desktop\Jawbone Site Icon.png"
   inkscape:export-xdpi="24.334454"
   inkscape:export-ydpi="24.334454"
   inkscape:version="1.4.2 (1:1.4.2+202505120737+ebf0e940d0)"
   sodipodi:docname="favicon.svg"
   xmlns:inkscape="http://www.inkscape.org/namespaces/inkscape"
   xmlns:sodipodi="http://sodipodi.sourceforge.net/DTD/sodipodi-0.dtd"
   xmlns="http://www.w3.org/2000/svg"
   xmlns:svg="http://www.w3.org/2000/svg"
   xmlns:rdf="http://www.w3.org/1999/02/22-rdf-syntax-ns#"
   xmlns:cc="http://creativecommons.org/ns#"
   xmlns:dc="http://purl.org/dc/elements/1.1/">
  <defs
     id="defs1334">
    <inkscape:path-effect
       effect="simplify"
       id="path-effect1421"
       is_visible="true"
       steps="1"
       threshold="0.000408163"
       smooth_angles="360"
       helper_size="0"
       simplify_individual_paths="false"
       simplify_just_coalesce="false"
       simplifyindividualpaths="false"
       simplifyJustCoalesce="false"
       lpeversion="0" />
  </defs>
  <sodipodi:namedview
     id="base"
     pagecolor="#ffffff"
     bordercolor="#666666"
     borderopacity="1.0"
     inkscape:pageopacity="0.0"
     inkscape:pageshadow="2"
     inkscape:zoom="0.9899495"
     inkscape:cx="229.8097"
     inkscape:cy="267.18535"
     inkscape:document-units="mm"
     inkscape:current-layer="layer1"
     showgrid="false"
     inkscape:window-width="1712"
     inkscape:window-height="889"
     inkscape:window-x="0"
     inkscape:window-y="0"
     inkscape:window-maximized="1"
     inkscape:showpageshadow="2"
     inkscape:pagecheckerboard="true"
     inkscape:deskcolor="#d1d1d1" />
  <metadata
     id="metadata1337">
    <rdf:RDF>
      <cc:Work
         rdf:about="">
        <dc:format>image/svg+xml</dc:format>
        <dc:type
           rdf:resource="http://purl.org/dc/dcmitype/StillImage" />
      </cc:Work>
    </rdf:RDF>
  </metadata>
  <g
     inkscape:label="Layer 1"
     inkscape:groupmode="layer"
     id="layer1">
    <g
       id="g1944"
       transform="matrix(0.25327045,0,0,0.25327045,40.586159,34.387838)">
      <path
         inkscape:connector-curvature="0"
         id="path1419"
         d="m 36.381242,-135.77517 c -50.723462,1.48268 -102.259111,7.58849 -150.148802,24.78594 -29.30172,13.225066 -7.6333,35.805677 9.48417,47.251994 17.873261,18.011987 34.270692,37.461196 49.338859,57.8695551 21.126297,3.9240531 48.79973,20.3963179 24.31375,41.0144439 -11.092623,23.818672 -15.000162,49.024746 -14.946345,74.931177 -7.974579,22.73106 -10.104641,52.00849 10.159279,69.24509 11.271601,16.83863 33.2305614,22.69859 43.6876006,41.21378 11.4248704,16.26615 25.5747164,30.35579 42.3348884,40.86908 29.473735,29.53458 16.902355,76.64008 39.856365,109.64053 7.224081,15.88688 31.133083,45.52482 39.400883,14.37629 0.27978,-20.64759 14.27781,-48.73811 37.39964,-29.05071 22.418,17.7238 67.42473,33.99865 73.4417,-7.63327 7.27139,-29.05349 33.288,-52.40659 28.9154,-84.04332 -3.22386,-34.96141 -51.16677,7.85823 -52.00349,-29.15009 12.36598,-17.22522 21.8754,-52.56046 -5.45731,-61.25467 -15.01383,2.03677 -45.42886,5.99442 -33.65346,-19.18163 0.45465,-27.58535 7.18475,-54.30701 6.23017,-81.625996 5.6151,-22.023541 -0.85536,-51.988502 23.26612,-64.5534861 29.22977,-13.0200191 67.86528,10.7111511 91.86821,-17.2325889 16.08492,-16.835863 51.55947,-34.258835 40.64117,-61.800343 -21.87427,-8.938734 -56.76551,-0.871963 -59.19782,-34.617286 -14.80132,-27.31734 -48.7536,-22.74218 -74.66429,-21.77651 -55.73092,1.34937 -111.075085,-6.10293 -166.567108,-9.2529 z m 148.472068,207.194066 0.0249,0.165672 z"
         style="fill:#000000;stroke:none;stroke-width:0.264583px;stroke-linecap:butt;stroke-linejoin:miter;stroke-opacity:1" />
      <path
         inkscape:connector-curvature="0"
         id="path2088-6"
         d="m 108.37897,350.339 c 1.098,-12.9894 2.78422,-17.2151 8.80125,-22.0496 3.63909,-2.9246 5.35668,-5.5224 6.03272,-9.1204 1.35054,-7.201 3.03676,-9.7375 6.47664,-9.7375 1.65798,0 11.96349,4.8204 22.90425,10.711 31.96431,17.2127 38.8849,20.3345 45.07763,20.3345 8.80266,0 13.7908,-3.7545 16.25807,-12.2383 2.32313,-7.9941 5.51984,-13.9306 12.27414,-22.7988 5.47604,-7.1865 9.95581,-16.8 8.99435,-19.3021 -0.55218,-1.4399 -1.73491,-1.5244 -5.76002,-0.409 -6.9785,1.9344 -20.32082,0.534 -33.00415,-3.464 -21.75606,-6.8571 -24.09017,-12.9664 -27.99746,-16.1906 -2.21168,-1.8265 -8.00285,-6.3183 -12.87012,-9.9836 -4.86571,-3.6648 -9.43494,-8.2798 -10.15649,-10.2561 -1.56856,-4.3107 -4.42023,-26.196 -5.27667,-40.5241 -0.43449,-7.2679 -0.0314,-11.7916 1.3631,-15.3006 3.46653,-8.7289 3.96533,-18.3251 4.13003,-79.4901 l 0.16009,-59.8734 3.65947,-6.9606 c 3.0995,-5.8984 3.65791,-8.5742 3.65791,-17.5314 0,-9.6769 1.41955,-18.6887 7.35502,-46.6908 3.40381,-16.0608 -10.34629,-15.7013 8.94085,-14.9806 9.01462,0.3372 18.78523,1.1838 21.71217,1.8822 2.92694,0.6991 14.60177,1.7704 25.94569,2.3822 11.43956,0.617 24.47292,2.1232 29.27116,3.3825 14.54543,3.8183 26.33471,0.9125 35.54698,-8.763 3.49949,-3.675 8.64755,-7.8762 11.43956,-9.3344 8.02012,-4.1901 5.69396,-5.7948 -8.91732,-6.1544 -11.01762,-0.2715 -14.06068,0.1481 -20.51376,2.8158 -11.1306,4.6038 -13.29831,-4.7405 -23.5427,-6.8633 -5.12288,-1.0615 -17.09914,-3.1108 -26.61095,-4.5545 -46.03586,-6.9845 -49.9965,-8.0863 -53.84106,-14.9784 -1.81798,-3.2603 -1.82425,5.5484 -0.047,2.3731 1.09798,-1.9603 6.84366,-1.0419 9.03965,-1.692 11.9556,2.9387 43.25014,4.4629 56.81508,7.2949 13.97142,2.9164 15.30633,2.3799 15.30633,-6.157 0,-4.4743 -0.78274,-14.0825 -3.26579,-16.5654 -3.05246,-3.0514 -4.21158,-3.2714 -17.63092,-3.3513 -7.89931,-0.044 -17.72949,-0.7975 -21.84386,-1.6682 -4.55513,-0.9636 -12.36497,-1.2852 -19.95845,-0.822 -7.97613,0.4855 -15.35471,0.1463 -20.45885,-0.9468 -10.05297,-2.1487 -16.12018,-2.2044 -26.73941,-0.2484 -6.54565,1.2056 -11.16509,1.1757 -20.77571,-0.1358 -6.79662,-0.928 -22.23762,-2.1672 -34.31405,-2.7536 -12.07327,-0.5856 -28.83658,-1.7906 -37.25354,-2.6767 -17.21976,-1.8145 -64.35372,-0.9724 -78.49909,1.4023 -13.95243,2.3417 -41.65965,9.3997 -44.90505,11.4394 -3.901,2.4499 -3.7803,4.6164 0.4768,8.5721 1.9105,1.774 5.4022,6.2192 7.7598,9.8782 2.3575,3.659 6.63347,9.4161 9.49924,12.7943 2.86892,3.3778 8.44833,10.3534 12.40112,15.5013 8.66478,11.2863 15.26534,15.6046 20.13731,13.1751 1.79601,-0.8952 4.6257,-4.0928 6.28683,-7.1055 7.01151,-12.7102 19.81888,-17.5975 50.87658,-19.4173 32.73605,-1.9174 38.14762,-1.7465 48.76997,1.5413 14.0042,4.3338 14.63006,5.379 12.6772,21.1528 -2.11602,17.0839 -1.96386,29.762 0.56311,47.5107 2.41873,16.9935 3.78653,41.4012 5.74096,102.4498 0.7733,24.1486 2.00933,54.2773 2.74814,66.952 1.46661,25.1792 0.95682,28.1806 -4.78728,28.1806 -4.91119,0 -17.43152,-10.194 -27.56761,-22.4441 C 56.1426,182.7301 49.42127,175.9768 46.00493,173.5235 40.41611,169.5116 31.84545,158.1779 26.32408,147.4993 22.37286,139.8569 17.68752,122.9705 16.1864,110.9606 15.33311,104.1328 13.77709,92.2513 12.72771,84.5566 9.02275,57.3705 10.68543,44.0781 19.88667,27.3017 26.33976,15.5357 28.11539,7.5029 24.86061,4.8015 21.18074,1.7466 13.00064,11.0309 8.03925,23.8975 5.78992,29.7307 1.6489,39.6324 -1.16356,45.9022 c -4.79353,10.6872 -7.18091,19.0504 -12.67718,44.4197 -1.46504,6.7557 -3.25164,11.3362 -5.09627,13.0634 -2.54736,2.3867 -2.81089,3.9243 -2.56933,14.9993 0.2949,13.47 -4.15984,26.4967 2.48618,36.2343 2.02347,2.964 5.24844,7.6729 7.16681,10.4655 1.91837,2.7925 5.46332,6.4012 7.87735,8.0184 2.4156,1.6176 6.30253,5.9193 8.63655,9.5583 6.72446,10.4769 16.48725,15.4114 25.85317,22.4629 17.72484,13.3469 28.68915,28.2113 34.2262,38.3216 2.87206,5.247 11.07724,14.4495 16.50137,20.4501 10.46864,10.5879 11.06155,11.4906 12.52661,14.3636 2.52539,4.9472 6.35741,3.1237 4.8202,18.3408 -1.78817,17.7227 -1.00231,34.8317 2.27129,49.4221 3.79908,16.9414 6.32761,18.3939 7.5166,4.3182 z m 79.28964,-103.9657 c 0.84545,-1.0199 3.33007,-5.5546 5.5214,-10.077 2.18967,-4.5218 7.71107,-12.8181 12.26777,-18.4349 -2.94586,-8.5164 10.55794,-22.4031 -12.97996,-11.4894 -11.94459,10.1837 -15.77823,14.6092 -19.53023,22.5413 -4.01238,8.4794 -4.82805,15.0822 -2.1928,17.7182 2.24924,2.2484 14.99392,2.0545 16.91382,-0.2582 z"
         style="fill:#c14d00;fill-opacity:1;stroke-width:1.33052"
         sodipodi:nodetypes="cccscsccccccscccsccscccccccccsccccsscccscccccccccscccccccscsccccccccsscccsccccccccccccccccc" />
    </g>
  </g>
</svg>
