<?xml version="1.0" encoding="UTF-8" standalone="no"?>
<!-- Created with Inkscape (http://www.inkscape.org/) -->

<svg
   width="512"
   height="512"
   viewBox="0 0 135.46666 135.46667"
   version="1.1"
   id="svg1340"
   inkscape:export-filename="C:\Users\jeff\Desktop\Jawbone Site Icon.png"
   inkscape:export-xdpi="24.334454"
   inkscape:export-ydpi="24.334454"
   inkscape:version="1.4.2 (1:1.4.2+202505120737+ebf0e940d0)"
   sodipodi:docname="favicon-maskable.svg"
   xmlns:inkscape="http://www.inkscape.org/namespaces/inkscape"
   xmlns:sodipodi="http://sodipodi.sourceforge.net/DTD/sodipodi-0.dtd"
   xmlns="http://www.w3.org/2000/svg"
   xmlns:svg="http://www.w3.org/2000/svg"
   xmlns:rdf="http://www.w3.org/1999/02/22-rdf-syntax-ns#"
   xmlns:cc="http://creativecommons.org/ns#"
   xmlns:dc="http://purl.org/dc/elements/1.1/">
  <defs
     id="defs1334">
    <inkscape:path-effect
       effect="simplify"
       id="path-effect1421"
       is_visible="true"
       steps="1"
       threshold="0.000408163"
       smooth_angles="360"
       helper_size="0"
       simplify_individual_paths="false"
       simplify_just_coalesce="false"
       simplifyindividualpaths="false"
       simplifyJustCoalesce="false"
       lpeversion="0" />
  </defs>
  <sodipodi:namedview
     id="base"
     pagecolor="#ffffff"
     bordercolor="#666666"
     borderopacity="1.0"
     inkscape:pageopacity="0.0"
     inkscape:pageshadow="2"
     inkscape:zoom="0.9899495"
     inkscape:cx="229.30463"
     inkscape:cy="267.18535"
     inkscape:document-units="mm"
     inkscape:current-layer="layer1"
     showgrid="false"
     inkscape:window-width="1712"
     inkscape:window-height="889"
     inkscape:window-x="0"
     inkscape:window-y="0"
     inkscape:window-maximized="1"
     inkscape:showpageshadow="2"
     inkscape:pagecheckerboard="true"
     inkscape:deskcolor="#d1d1d1" />
  <metadata
     id="metadata1337">
    <rdf:RDF>
      <cc:Work
         rdf:about="">
        <dc:format>image/svg+xml</dc:format>
        <dc:type
           rdf:resource="http://purl.org/dc/dcmitype/StillImage" />
      </cc:Work>
    </rdf:RDF>
  </metadata>
  <g
     inkscape:label="Layer 1"
     inkscape:groupmode="layer"
     id="layer1">
    <rect
       style="fill:#000000;fill-opacity:1;stroke-width:8.47521"
       id="rect1"
       width="135.46666"
       height="135.46666"
       x="0"
       y="0" />
    <path
       inkscape:connector-curvature="0"
       id="path2088-6"
       d="m 71.007097,118.24179 c 0.224325,-2.65378 0.568826,-3.5171 1.798127,-4.50481 0.743479,-0.59751 1.094389,-1.12825 1.232507,-1.86334 0.27592,-1.47119 0.62042,-1.9894 1.3232,-1.9894 0.338732,0 2.444185,0.98483 4.679422,2.1883 6.530424,3.51661 7.944326,4.15441 9.209523,4.15441 1.798415,0 2.817511,-0.76706 3.321582,-2.50033 0.474625,-1.63322 1.127724,-2.84607 2.507652,-4.65788 1.118775,-1.46823 2.034011,-3.43229 1.83758,-3.94348 -0.112811,-0.29419 -0.35445,-0.31145 -1.176794,-0.0836 -1.425733,0.3952 -4.151618,0.1091 -6.742868,-0.70771 -4.444842,-1.40093 -4.92171,-2.64909 -5.719983,-3.3078 -0.451854,-0.37316 -1.635011,-1.290854 -2.629412,-2.039687 -0.994082,-0.748732 -1.927592,-1.691593 -2.075008,-2.095359 -0.320462,-0.880691 -0.903068,-5.351937 -1.078042,-8.27922 -0.08877,-1.484859 -0.0065,-2.409066 0.278486,-3.125968 0.708224,-1.783346 0.810131,-3.743885 0.84378,-16.240116 l 0.03271,-12.232353 0.747643,-1.422075 c 0.633239,-1.205065 0.747325,-1.751741 0.747325,-3.581729 0,-1.977025 0.290019,-3.818169 1.502657,-9.5391 0.69541,-3.28128 -2.113785,-3.207832 1.826648,-3.060591 1.841719,0.06889 3.837891,0.241855 4.435875,0.384541 0.597984,0.142828 2.983194,0.361699 5.300799,0.486692 2.337143,0.126055 4.999901,0.433777 5.980197,0.691057 2.971687,0.780092 5.380277,0.186427 7.262377,-1.790313 0.71496,-0.750816 1.76673,-1.609136 2.33715,-1.907052 1.63854,-0.856052 1.16329,-1.183898 -1.82185,-1.257366 -2.25093,-0.05547 -2.87264,0.03026 -4.19103,0.575279 -2.27402,0.940572 -2.7169,-0.968502 -4.809861,-1.402198 -1.04662,-0.216868 -3.49341,-0.635547 -5.436708,-0.930501 -9.405293,-1.426958 -10.214466,-1.65206 -10.999923,-3.060141 -0.371421,-0.666092 -0.372702,1.133558 -0.0096,0.484833 0.224322,-0.400497 1.398185,-0.212864 1.846833,-0.345682 2.442573,0.600387 8.836161,0.911786 11.607527,1.490374 2.854415,0.595832 3.12714,0.486223 3.12714,-1.257897 0,-0.914116 -0.159913,-2.877106 -0.667215,-3.384371 -0.62363,-0.623412 -0.860446,-0.668359 -3.602066,-0.684683 -1.613858,-0.009 -3.622199,-0.162933 -4.46278,-0.340819 -0.930629,-0.19687 -2.526208,-0.262574 -4.077584,-0.167941 -1.629552,0.09919 -3.137022,0.02989 -4.179817,-0.193434 -2.053858,-0.438987 -3.293411,-0.450367 -5.462958,-0.05075 -1.3373,0.246308 -2.281069,0.2402 -4.244553,-0.02774 -1.388574,-0.189594 -4.543227,-0.442767 -7.010485,-0.562571 -2.466613,-0.11964 -5.891418,-0.365826 -7.611034,-0.546859 -3.518059,-0.370709 -13.147697,-0.198665 -16.037648,0.286495 -2.850532,0.478417 -8.511218,1.920393 -9.174265,2.337111 -0.796988,0.500523 -0.772329,0.943147 0.09741,1.751311 0.390322,0.362434 1.103688,1.270605 1.585355,2.018152 0.481646,0.747547 1.355242,1.923744 1.940729,2.613922 0.586131,0.690097 1.726024,2.115237 2.533594,3.166972 1.770245,2.305832 3.118764,3.188076 4.114125,2.691721 0.366932,-0.182893 0.945047,-0.836175 1.284423,-1.45168 1.432476,-2.59674 4.049068,-3.595233 10.394269,-3.967025 6.688094,-0.391732 7.793697,-0.356816 9.963882,0.314894 2.861108,0.88541 2.988974,1.098949 2.589997,4.321593 -0.43231,3.490303 -0.401223,6.080485 0.115046,9.706608 0.494155,3.471834 0.773602,8.458416 1.172899,20.930866 0.157988,4.933647 0.410514,11.08905 0.561455,13.678537 0.299634,5.144202 0.195482,5.757398 -0.978059,5.757398 -1.003373,0 -3.561322,-2.082671 -5.632162,-4.58541 -0.980302,-1.185227 -2.353495,-2.564951 -3.051465,-3.066169 -1.141816,-0.819646 -2.892833,-3.135162 -4.020869,-5.316839 -0.807249,-1.56137 -1.764481,-5.011322 -2.071165,-7.464988 -0.17433,-1.394945 -0.49223,-3.822378 -0.706623,-5.394433 -0.756936,-5.554219 -0.417245,-8.269905 1.462602,-11.697384 1.31839,-2.403836 1.681157,-4.044967 1.016194,-4.596873 -0.751811,-0.624127 -2.423035,1.27269 -3.436665,3.901383 -0.459546,1.191744 -1.305571,3.214697 -1.880167,4.49564 -0.979336,2.183433 -1.467087,3.892065 -2.589994,9.075105 -0.299314,1.380214 -0.664322,2.316027 -1.041187,2.6689 -0.520435,0.487612 -0.574274,0.801749 -0.524923,3.064412 0.06025,2.75197 -0.849871,5.413372 0.507936,7.402798 0.413402,0.605557 1.072274,1.567602 1.464205,2.13814 0.391929,0.570518 1.116176,1.307788 1.609371,1.638188 0.493516,0.330482 1.287629,1.209335 1.764479,1.952796 1.373831,2.140468 3.368404,3.148604 5.281896,4.589252 3.621249,2.72682 5.861297,5.76367 6.992537,7.829242 0.586772,1.071981 2.26312,2.952085 3.371289,4.178025 2.138781,2.16315 2.259915,2.34757 2.559232,2.93454 0.515946,1.01073 1.298842,0.63818 0.984784,3.74709 -0.365329,3.62082 -0.204775,7.11624 0.464033,10.09712 0.776166,3.46118 1.292754,3.75794 1.535669,0.88222 z m 16.19916,-21.240568 c 0.172729,-0.20837 0.680346,-1.134825 1.128043,-2.058769 0.447357,-0.923819 1.575399,-2.618784 2.506349,-3.766316 -0.601849,-1.739932 2.157026,-4.577035 -2.651852,-2.347327 -2.440324,2.080568 -3.22355,2.984713 -3.990097,4.60527 -0.819744,1.732372 -0.986388,3.081348 -0.447997,3.619892 0.459528,0.459356 3.063312,0.419742 3.455554,-0.05275 z"
       style="fill:#c14d00;fill-opacity:1;stroke-width:0.27183"
       sodipodi:nodetypes="cccscsccccccscccsccscccccccccsccccsscccscccccccccscccccccscsccccccccsscccsccccccccccccccccc" />
    <path
       id="rect4"
       style="fill:#000000;fill-opacity:1;stroke-width:18.9136"
       d="M 142.87503,-0.28919182 V 135.17748 H 278.34179 V -0.28919182 Z M 210.60837,13.204558 a 54.239582,54.239582 0 0 1 54.23962,54.239583 54.239582,54.239582 0 0 1 -54.23962,54.239589 54.239582,54.239582 0 0 1 -54.23953,-54.239589 54.239582,54.239582 0 0 1 54.23953,-54.239583 z" />
  </g>
</svg>
