<?xml version="1.0" standalone="no"?>
<!DOCTYPE svg PUBLIC "-//W3C//DTD SVG 20010904//EN"
 "http://www.w3.org/TR/2001/REC-SVG-20010904/DTD/svg10.dtd">
<svg version="1.0" xmlns="http://www.w3.org/2000/svg"
 width="700.000000pt" height="700.000000pt" viewBox="0 0 700.000000 700.000000"
 preserveAspectRatio="xMidYMid meet">
<metadata>
Created by potrace 1.14, written by Peter Selinger 2001-2017
</metadata>
<g transform="translate(0.000000,700.000000) scale(0.100000,-0.100000)"
fill="#000000" stroke="none">
<path d="M1400 6909 c-41 -4 -95 -12 -120 -19 -211 -57 -347 -229 -386 -488
-3 -20 -7 -48 -9 -62 -3 -14 -7 -54 -11 -90 -3 -36 -7 -67 -9 -70 -2 -3 -6
-39 -10 -80 -4 -41 -9 -83 -11 -94 -2 -10 -6 -44 -9 -75 -3 -31 -8 -67 -10
-81 -3 -14 -7 -52 -11 -85 -3 -33 -8 -69 -10 -80 -2 -11 -6 -47 -9 -80 -3 -33
-8 -71 -10 -85 -2 -14 -9 -65 -15 -115 -6 -49 -13 -103 -15 -120 -4 -30 -10
-79 -20 -172 -3 -27 -8 -64 -10 -83 -3 -19 -7 -57 -11 -85 -3 -27 -7 -61 -9
-75 -2 -14 -16 -119 -30 -235 -14 -115 -28 -223 -30 -240 -2 -16 -7 -55 -10
-85 -3 -30 -10 -91 -16 -135 -13 -107 -16 -129 -34 -275 -8 -69 -18 -141 -21
-160 -3 -19 -7 -60 -10 -90 -2 -30 -7 -66 -9 -80 -8 -49 -35 -267 -61 -490 -3
-25 -9 -76 -14 -115 -5 -38 -12 -90 -15 -115 -3 -25 -10 -85 -15 -135 -6 -49
-12 -97 -15 -105 -11 -42 -19 -169 -19 -280 1 -103 5 -136 24 -190 42 -119
119 -213 222 -274 95 -55 185 -77 458 -111 188 -23 284 -35 330 -40 30 -4 66
-8 80 -10 14 -2 43 -6 65 -9 22 -3 65 -8 95 -11 30 -3 66 -8 80 -10 29 -5 104
-14 175 -21 27 -3 51 -7 54 -9 2 -2 -4 -35 -14 -72 -23 -91 -41 -209 -40 -258
7 -220 114 -375 328 -475 62 -29 146 -53 1097 -315 551 -152 531 -147 760
-209 91 -24 248 -68 350 -96 350 -97 395 -109 465 -118 124 -17 258 1 340 46
153 84 242 220 310 472 12 47 55 202 94 345 40 143 99 357 131 475 32 118 100
364 150 545 50 182 98 354 106 383 7 28 112 411 233 850 121 438 240 871 265
962 70 254 78 297 78 400 -1 191 -78 333 -237 435 -86 56 -145 77 -445 159
-91 24 -257 70 -370 101 -113 31 -286 79 -385 106 -99 27 -202 55 -230 63 -27
8 -111 31 -185 51 -74 20 -159 44 -188 52 l-53 15 6 61 c4 34 8 69 10 77 1 8
6 46 10 85 4 38 9 73 11 77 13 21 11 243 -3 310 -52 255 -240 398 -568 433
-27 3 -61 7 -75 10 -14 2 -50 7 -80 10 -30 3 -86 10 -125 15 -38 5 -92 12
-120 15 -27 3 -63 7 -80 10 -16 2 -57 7 -90 11 -33 3 -69 8 -81 9 -11 2 -63 8
-115 14 -52 7 -107 14 -124 16 -16 2 -53 7 -81 10 -28 3 -60 7 -71 9 -11 3
-56 7 -99 11 -43 4 -82 9 -85 11 -3 1 -37 6 -75 9 -38 3 -76 8 -84 10 -8 2
-40 7 -70 10 -67 7 -123 14 -170 20 -49 6 -100 13 -205 25 -49 6 -103 13 -120
15 -16 2 -52 7 -80 10 -27 3 -61 8 -75 10 -14 2 -50 6 -80 9 -30 3 -71 8 -90
11 -56 8 -100 14 -175 20 -38 3 -74 7 -80 9 -5 1 -44 -1 -85 -5z"/>
</g>
</svg>
