<?xml version="1.0" encoding="UTF-8" standalone="no"?>
<!-- Created with Inkscape (http://www.inkscape.org/) -->

<svg
   width="512"
   height="512"
   viewBox="0 0 135.46666 135.46667"
   version="1.1"
   id="svg5"
   inkscape:export-filename="maskable256.png"
   inkscape:export-xdpi="48"
   inkscape:export-ydpi="48"
   inkscape:version="1.4.2 (1:1.4.2+202505120737+ebf0e940d0)"
   sodipodi:docname="favicon-maskable.svg"
   xmlns:inkscape="http://www.inkscape.org/namespaces/inkscape"
   xmlns:sodipodi="http://sodipodi.sourceforge.net/DTD/sodipodi-0.dtd"
   xmlns="http://www.w3.org/2000/svg"
   xmlns:svg="http://www.w3.org/2000/svg">
  <sodipodi:namedview
     id="namedview7"
     pagecolor="#006000"
     bordercolor="#000000"
     borderopacity="0.25"
     inkscape:showpageshadow="2"
     inkscape:pageopacity="0"
     inkscape:pagecheckerboard="0"
     inkscape:deskcolor="#d1d1d1"
     inkscape:document-units="mm"
     showgrid="false"
     inkscape:zoom="1.0293026"
     inkscape:cx="221.5092"
     inkscape:cy="298.74597"
     inkscape:window-width="1712"
     inkscape:window-height="889"
     inkscape:window-x="0"
     inkscape:window-y="0"
     inkscape:window-maximized="1"
     inkscape:current-layer="layer1" />
  <defs
     id="defs2">
    <filter
       style="color-interpolation-filters:sRGB;"
       inkscape:label="Drop Shadow"
       id="filter4014"
       x="-0.082912439"
       y="-0.055923869"
       width="1.1972311"
       height="1.133031">
      <feFlood
         flood-opacity="0.498039"
         flood-color="rgb(0,0,0)"
         result="flood"
         id="feFlood4004" />
      <feComposite
         in="flood"
         in2="SourceGraphic"
         operator="in"
         result="composite1"
         id="feComposite4006" />
      <feGaussianBlur
         in="composite1"
         stdDeviation="2.2"
         result="blur"
         id="feGaussianBlur4008" />
      <feOffset
         dx="2"
         dy="2"
         result="offset"
         id="feOffset4010" />
      <feComposite
         in="SourceGraphic"
         in2="offset"
         operator="over"
         result="composite2"
         id="feComposite4012" />
    </filter>
    <filter
       style="color-interpolation-filters:sRGB;"
       inkscape:label="Drop Shadow"
       id="filter6363"
       x="-0.1234726"
       y="-0.087453402"
       width="1.2469473"
       height="1.174912">
      <feFlood
         flood-opacity="0.498039"
         flood-color="rgb(0,0,0)"
         result="flood"
         id="feFlood6353" />
      <feComposite
         in="flood"
         in2="SourceGraphic"
         operator="in"
         result="composite1"
         id="feComposite6355" />
      <feGaussianBlur
         in="composite1"
         stdDeviation="2.2"
         result="blur"
         id="feGaussianBlur6357" />
      <feOffset
         dx="0"
         dy="0"
         result="offset"
         id="feOffset6359" />
      <feComposite
         in="SourceGraphic"
         in2="offset"
         operator="over"
         result="composite2"
         id="feComposite6361" />
    </filter>
    <filter
       style="color-interpolation-filters:sRGB;"
       inkscape:label="Drop Shadow"
       id="filter7101"
       x="-0.12347151"
       y="-0.087455295"
       width="1.2469422"
       height="1.1749109">
      <feFlood
         flood-opacity="0.498039"
         flood-color="rgb(0,0,0)"
         result="flood"
         id="feFlood7091" />
      <feComposite
         in="flood"
         in2="SourceGraphic"
         operator="in"
         result="composite1"
         id="feComposite7093" />
      <feGaussianBlur
         in="composite1"
         stdDeviation="2.2"
         result="blur"
         id="feGaussianBlur7095" />
      <feOffset
         dx="0"
         dy="0"
         result="offset"
         id="feOffset7097" />
      <feComposite
         in="SourceGraphic"
         in2="offset"
         operator="over"
         result="composite2"
         id="feComposite7099" />
    </filter>
    <filter
       style="color-interpolation-filters:sRGB;"
       inkscape:label="Drop Shadow"
       id="filter7839"
       x="-0.12224898"
       y="-0.087457402"
       width="1.2345686"
       height="1.1749168">
      <feFlood
         flood-opacity="0.498039"
         flood-color="rgb(0,0,0)"
         result="flood"
         id="feFlood7829" />
      <feComposite
         in="flood"
         in2="SourceGraphic"
         operator="in"
         result="composite1"
         id="feComposite7831" />
      <feGaussianBlur
         in="composite1"
         stdDeviation="2.2"
         result="blur"
         id="feGaussianBlur7833" />
      <feOffset
         dx="0"
         dy="0"
         result="offset"
         id="feOffset7835" />
      <feComposite
         in="SourceGraphic"
         in2="offset"
         operator="over"
         result="composite2"
         id="feComposite7837" />
    </filter>
    <filter
       style="color-interpolation-filters:sRGB;"
       inkscape:label="Drop Shadow"
       id="filter8577"
       x="-0.12347195"
       y="-0.087450905"
       width="1.2469466"
       height="1.1749053">
      <feFlood
         flood-opacity="0.498039"
         flood-color="rgb(0,0,0)"
         result="flood"
         id="feFlood8567" />
      <feComposite
         in="flood"
         in2="SourceGraphic"
         operator="in"
         result="composite1"
         id="feComposite8569" />
      <feGaussianBlur
         in="composite1"
         stdDeviation="2.2"
         result="blur"
         id="feGaussianBlur8571" />
      <feOffset
         dx="0"
         dy="0"
         result="offset"
         id="feOffset8573" />
      <feComposite
         in="SourceGraphic"
         in2="offset"
         operator="over"
         result="composite2"
         id="feComposite8575" />
    </filter>
    <filter
       style="color-interpolation-filters:sRGB;"
       inkscape:label="Drop Shadow"
       id="filter9315"
       x="-0.12347501"
       y="-0.087459598"
       width="1.24695"
       height="1.1749192">
      <feFlood
         flood-opacity="0.498039"
         flood-color="rgb(0,0,0)"
         result="flood"
         id="feFlood9305" />
      <feComposite
         in="flood"
         in2="SourceGraphic"
         operator="in"
         result="composite1"
         id="feComposite9307" />
      <feGaussianBlur
         in="composite1"
         stdDeviation="2.2"
         result="blur"
         id="feGaussianBlur9309" />
      <feOffset
         dx="0"
         dy="0"
         result="offset"
         id="feOffset9311" />
      <feComposite
         in="SourceGraphic"
         in2="offset"
         operator="over"
         result="composite2"
         id="feComposite9313" />
    </filter>
    <filter
       style="color-interpolation-filters:sRGB;"
       inkscape:label="Drop Shadow"
       id="filter11641"
       x="-0.073457243"
       y="-0.096291551"
       width="1.1598621"
       height="1.2036841">
      <feFlood
         flood-opacity="0.498039"
         flood-color="rgb(0,0,0)"
         result="flood"
         id="feFlood11631" />
      <feComposite
         in="flood"
         in2="SourceGraphic"
         operator="in"
         result="composite1"
         id="feComposite11633" />
      <feGaussianBlur
         in="composite1"
         stdDeviation="2.2"
         result="blur"
         id="feGaussianBlur11635" />
      <feOffset
         dx="0"
         dy="0"
         result="offset"
         id="feOffset11637" />
      <feComposite
         in="SourceGraphic"
         in2="offset"
         operator="over"
         result="composite2"
         id="feComposite11639" />
    </filter>
    <clipPath
       clipPathUnits="userSpaceOnUse"
       id="clipPath5">
      <rect
         style="display:inline;fill:#ff6000;fill-opacity:1;stroke:none;stroke-width:0.264583;stroke-dasharray:none;stroke-opacity:1"
         id="rect5"
         width="135.46666"
         height="135.46666"
         x="8.2988771e-07"
         y="9.2461434e-09" />
    </clipPath>
  </defs>
  <g
     inkscape:label="Layer 1"
     inkscape:groupmode="layer"
     id="layer1">
    <rect
       style="fill:#006000;fill-opacity:1;stroke:none;stroke-width:0.264583;stroke-dasharray:none;stroke-opacity:1"
       id="rect4431"
       width="135.46666"
       height="135.46666"
       x="-1.5894572e-07"
       y="-3.5527137e-15" />
    <g
       id="g5"
       clip-path="url(#clipPath5)">
      <g
         id="g5110"
         transform="matrix(0.64738933,-0.05708638,0.05708638,0.64738933,22.001504,8.4698233)"
         style="filter:url(#filter6363)">
        <path
           style="font-size:71.0668px;font-family:Elephant;-inkscape-font-specification:'Elephant, Normal';fill:#ffffff;fill-opacity:1;stroke:#ffffff;stroke-width:3.965;stroke-dasharray:none;stroke-opacity:1"
           d="m -6.1760806,38.092828 c -5.5520804,0 -8.3281704,2.7761 -8.3281704,8.328174 V 112.803 c 0,5.55205 2.77609,8.32817 8.3281704,8.32817 H 35.985149 c 5.55205,0 8.32817,-2.77612 8.32817,-8.32817 V 46.421002 c 0,-5.552074 -2.77612,-8.328174 -8.32817,-8.328174 z"
           id="text402-1-1" />
        <path
           d="m 37.936625,38.222917 c -0.607261,-0.08675 -1.257319,-0.130559 -1.951331,-0.130559 l -42.1616386,3.6e-4 c -5.5520944,0 -8.3278954,2.77584 -8.3278954,8.327934 l -1.37e-4,66.382228 c 0,5.55209 2.775841,8.3279 8.327935,8.3279 l 42.161569,4.3e-4 c 5.552094,0 8.327896,-2.77584 8.327896,-8.32794 l 1.36e-4,-66.382224 c 0,-4.858083 -2.125712,-7.590868 -6.376534,-8.198129 z m -0.975295,4.099109 c 2.125411,0.30363 3.187476,1.669954 3.187476,4.098994 l 6.55e-4,66.3823 c 0,2.77605 -1.388262,4.16354 -4.164309,4.16354 l -42.1616387,3.6e-4 c -2.7760468,0 -4.1635363,-1.38827 -4.1635363,-4.16431 l 1.36e-4,-66.382232 c 0,-2.776047 1.3874705,-4.163607 4.1635172,-4.163607 l 42.1616388,-3.59e-4 c 0.347006,0 0.672431,0.02194 0.976061,0.06531 z m -18.048152,3.56907 c -0.362188,-0.04012 -0.732573,-0.06048 -1.111388,-0.06048 -3.747663,0 -6.431187,1.284138 -8.050548,3.851981 -1.6193607,2.567844 -2.428458,6.292166 -2.428458,11.173382 0,4.90435 0.8095241,8.640329 2.4288848,11.208172 1.6193612,2.567844 4.3028002,3.852509 8.0504632,3.852509 3.030518,0 5.528641,-1.284433 7.495008,-3.852277 1.966366,-2.567843 2.949565,-6.303701 2.949565,-11.208051 0,-4.881216 -0.982833,-8.605589 -2.9492,-11.173433 -1.720571,-2.246863 -3.849016,-3.51094 -6.384327,-3.791798 z m -15.4772308,0.529423 -4.7542326,-1.56e-4 -4.857685,1.354096 -4.755e-4,4.024624 4.6154723,-1.42255 1.537e-4,25.018876 4.9969074,2e-6 z m 14.9706188,2.545379 c 1.384048,0.217602 2.58192,1.196688 3.59402,2.937502 1.17982,1.9895 1.769691,4.973522 1.769691,8.952523 0,4.002135 -0.589737,6.998163 -1.769557,8.987664 -1.156686,1.9895 -2.555962,2.984735 -4.198456,2.984735 -1.642495,0 -3.042242,-0.994956 -4.198928,-2.984456 -1.17982,-1.9895 -1.769786,-4.985519 -1.769786,-8.987653 0,-3.979001 0.589832,-6.963034 1.769652,-8.952534 1.156686,-1.9895 2.555962,-2.984735 4.198457,-2.984735 0.205312,0 0.407186,0.01587 0.604907,0.04695 z m 11.663896,31.264596 c -0.374116,-0.05386 -0.762695,-0.08115 -1.164643,-0.08115 -1.943233,0 -3.631459,0.821949 -5.06575,2.464443 -1.272355,1.434291 -2.163513,3.516177 -2.672455,6.245957 -0.508942,-2.660379 -1.399302,-4.74255 -2.671657,-6.246242 -1.388023,-1.642495 -3.076709,-2.463858 -5.06621,-2.463858 -3.192454,0 -5.5176354,1.723575 -6.9750601,5.170501 -0.4395407,1.041017 -0.6590776,2.244052 -0.6590776,3.608942 0,3.701396 1.4457557,7.367712 4.3374707,10.999707 L 21.237236,113.87836 32.202491,99.928785 c 2.891715,-3.678263 4.337648,-7.344315 4.337648,-10.999443 0,-1.36489 -0.219216,-2.568388 -0.658756,-3.609405 -1.255005,-3.01606 -3.192111,-4.712436 -5.810921,-5.089443 z"
           style="font-size:71.0668px;font-family:'DejaVu Sans';-inkscape-font-specification:'DejaVu Sans, Normal';fill:#ff0000;stroke-width:0.264583"
           id="path5" />
      </g>
      <g
         id="g5120"
         transform="matrix(0.63622536,0.13262387,-0.13262387,0.63622536,-131.52928,0.14174941)"
         style="filter:url(#filter7101)">
        <path
           style="font-size:71.0668px;font-family:Elephant;-inkscape-font-specification:'Elephant, Normal';fill:#ffffff;fill-opacity:1;stroke:#ffffff;stroke-width:3.965;stroke-dasharray:none;stroke-opacity:1"
           d="m 275.9194,-8.4383847 c -5.55208,0 -8.32817,2.776098 -8.32817,8.328169 V 66.271784 c 0,5.552052 2.77609,8.328172 8.32817,8.328172 h 42.16123 c 5.55205,0 8.32817,-2.77612 8.32817,-8.328172 V -0.1102157 c 0,-5.552071 -2.77612,-8.328168 -8.32817,-8.328168 z"
           id="text402-1-4-4-8" />
        <path
           d="m 273.08889,-8.1455887 c -3.66525,0.8458268 -5.49782,3.5243439 -5.49782,8.03542019 l 4.2e-4,66.38222951 c 0,5.552094 2.77592,8.327578 8.32802,8.327578 l 42.16079,5.97e-4 c 5.5521,0 8.32836,-2.776085 8.32836,-8.328179 l 3.5e-4,-66.38239158 c 0,-5.55209402 -2.77608,-8.32835632 -8.32818,-8.32835632 l -42.16141,3.443e-4 c -1.04102,0 -1.9847,0.097567 -2.83053,0.2927579 z m 1.41491,4.0172114 c 0.42291,-0.097595 0.89475,-0.1463789 1.41526,-0.1463789 l 42.16157,4.34e-4 c 2.77605,0 4.16401,1.387742 4.16401,4.16378901 l -3.5e-4,66.38239219 c 0,2.776047 -1.38774,4.164008 -4.16379,4.164008 l -42.16141,3.44e-4 c -2.77605,0 -4.16417,-1.388521 -4.16417,-4.164567 l 3.5e-4,-66.38239231 c 0,-2.25553819 0.9159,-3.59471559 2.74853,-4.01762899 z m 8.1477,4.01808549 -5.3e-4,19.01614781 c 0,2.498442 -0.40484,4.232939 -1.21452,5.204556 -0.80968,0.971616 -2.18607,1.457762 -4.1293,1.457762 l -1.38807,1.93e-4 -1e-4,3.330996 1.70074,-3.92e-4 c 3.30812,0 5.7025,-0.797821 7.18306,-2.394047 1.5037,-1.619362 2.25537,-4.1522 2.25537,-7.599125 l -2.6e-4,-19.01598512 z M 294.36886,33.699646 c -2.60363,0.377008 -4.54357,2.072882 -5.81882,5.088941 -0.43954,1.041018 -0.65936,2.244049 -0.65936,3.608939 0,3.701396 1.4466,7.368587 4.33832,11.000582 l 11.10409,13.949493 10.96515,-13.949423 c 2.89172,-3.678262 4.33724,-7.345064 4.33724,-11.000192 0,-1.36489 -0.21946,-2.568449 -0.659,-3.609467 -1.43429,-3.446925 -3.75892,-5.169908 -6.97451,-5.169908 -1.94323,0 -3.63219,0.821237 -5.06648,2.463732 -1.27236,1.43429 -2.16333,3.516159 -2.67227,6.245938 -0.50894,-2.660378 -1.39916,-4.742697 -2.67152,-6.246389 -1.38802,-1.642495 -3.07735,-2.463206 -5.06685,-2.463206 -0.39906,0 -0.78404,0.0271 -1.15599,0.08096 z"
           style="font-size:71.0668px;font-family:'DejaVu Sans';-inkscape-font-specification:'DejaVu Sans, Normal';fill:#ff0000;stroke-width:0.264583"
           id="path4" />
      </g>
      <g
         id="g5130"
         transform="matrix(0.59066427,0.27108583,-0.27108583,0.59066427,-48.861376,-84.036069)"
         style="filter:url(#filter7839)">
        <path
           style="font-size:71.0668px;font-family:Elephant;-inkscape-font-specification:'Elephant, Normal';fill:#ffffff;fill-opacity:1;stroke:#ffffff;stroke-width:3.965;stroke-dasharray:none;stroke-opacity:1"
           d="m 235.93164,95.166271 c -5.55208,0 -8.32817,2.776098 -8.32817,8.328169 v 66.382 c 0,5.55205 2.77609,8.32817 8.32817,8.32817 h 42.16123 c 5.55205,0 8.32817,-2.77612 8.32817,-8.32817 v -66.382 c 0,-5.552071 -2.77612,-8.328168 -8.32817,-8.328168 z"
           id="text402-1-4-4" />
        <path
           d="m 232.13004,95.97964 c -2.62423,1.192834 -3.93695,3.697561 -3.93695,7.51463 l -7e-5,66.38206 c 0,5.5521 2.77658,8.32798 8.32867,8.32798 l 42.16084,1.2e-4 c 5.5521,0 8.32831,-2.77586 8.32831,-8.32795 l 8e-5,-66.38207 c 0,-5.552096 -2.77586,-8.328307 -8.32795,-8.328307 l -42.16157,2.15e-4 c -1.73503,0 -3.19852,0.271125 -4.39136,0.813322 z m 2.19579,3.756876 c 0.59642,-0.271098 1.32816,-0.406661 2.19568,-0.406661 l 42.16084,1.17e-4 c 2.77605,0 4.16398,1.388108 4.16398,4.164158 l 2.5e-4,66.38278 c 0,2.77605 -1.38738,4.16365 -4.16343,4.16365 l -42.16157,2.1e-4 c -2.77604,0 -4.16397,-1.38811 -4.16397,-4.16415 l -2.6e-4,-66.38279 c 0,-1.90853 0.65636,-3.1609 1.96848,-3.757314 z m 7.15784,4.105074 c -1.36489,0.62461 -2.49838,1.56082 -3.40059,2.81004 -1.80443,2.47531 -2.7064,6.24664 -2.7064,11.31293 0,5.04315 0.89056,8.81331 2.67186,11.31175 1.80443,2.47531 4.53373,3.71324 8.18886,3.71324 l 0.4515,1.4e-4 c 0.2082,-0.0231 0.35871,-0.0348 0.45124,-0.0348 l 5.10039,4.71951 3.29695,-1.94358 -4.37232,-3.67834 c 2.03576,-0.92534 3.55086,-2.54447 4.5456,-4.85785 0.99476,-2.3365 1.49229,-5.41371 1.49229,-9.23078 0,-5.06628 -0.90231,-8.83618 -2.70674,-11.31149 -1.80443,-2.49844 -4.54573,-3.74786 -8.22399,-3.74786 -1.82757,0 -3.42376,0.31243 -4.78865,0.93704 z m 2.54865,2.64042 c 0.6604,-0.257 1.40697,-0.38491 2.23979,-0.38491 2.24397,0 3.85221,0.91302 4.82383,2.74059 0.99474,1.82756 1.49207,4.86958 1.49207,9.12619 0,4.25661 -0.49726,7.29897 -1.49201,9.12654 -0.97162,1.82756 -2.58001,2.74153 -4.82398,2.74153 -2.22084,0 -3.82836,-0.91336 -4.82311,-2.74092 -0.97161,-1.82756 -1.4572,-4.86984 -1.4572,-9.12645 0,-4.2566 0.48552,-7.29872 1.45713,-9.12628 0.62173,-1.14223 1.48283,-1.92795 2.58348,-2.35629 z m 8.27976,31.46843 c -1.58863,0.80788 -2.83812,2.28894 -3.74901,4.44326 -0.43954,1.04102 -0.65952,2.244 -0.65952,3.60889 0,3.70139 1.44537,7.36781 4.33708,10.99981 l 11.10477,13.94974 10.96529,-13.94938 c 2.89172,-3.67826 4.33725,-7.34504 4.33725,-11.00016 0,-1.3649 -0.21951,-2.56813 -0.65905,-3.60915 -1.43429,-3.44692 -3.75938,-5.17062 -6.97496,-5.17062 -1.94324,0 -3.63163,0.82162 -5.06592,2.46411 -1.27236,1.43429 -2.16348,3.51596 -2.67242,6.24573 -0.50894,-2.66037 -1.4,-4.74223 -2.67235,-6.24593 -1.38803,-1.64249 -3.07628,-2.46331 -5.06578,-2.46331 -1.19717,0 -2.27219,0.24229 -3.22538,0.72701 z"
           style="font-size:71.0668px;font-family:'DejaVu Sans';-inkscape-font-specification:'DejaVu Sans, Normal';fill:#ff0000;stroke-width:0.264583"
           id="path3" />
      </g>
      <g
         id="g5125"
         transform="matrix(0.54597378,0.35253998,-0.35253998,0.54597378,28.112843,-58.793687)"
         style="filter:url(#filter8577)">
        <path
           style="font-size:71.0668px;font-family:Elephant;-inkscape-font-specification:'Elephant, Normal';fill:#ffffff;fill-opacity:1;stroke:#ffffff;stroke-width:3.965;stroke-dasharray:none;stroke-opacity:1"
           d="m 164.31719,88.986342 c -5.55208,0 -8.32817,2.7761 -8.32817,8.328172 v 66.381996 c 0,5.55205 2.77609,8.32817 8.32817,8.32817 h 42.16123 c 5.55205,0 8.32817,-2.77612 8.32817,-8.32817 V 97.314514 c 0,-5.552072 -2.77612,-8.328172 -8.32817,-8.328172 z"
           id="text402-1-4" />
        <path
           d="m 159.24238,90.157499 c -2.16878,1.301272 -3.25352,3.686975 -3.25352,7.157033 l 9e-5,66.381798 c 0,5.55209 2.77606,8.3287 8.32815,8.3287 l 42.16139,-7.3e-4 c 5.55209,0 8.32804,-2.77563 8.32804,-8.32772 l -9e-5,-66.381798 c 0,-5.552094 -2.77607,-8.328706 -8.32816,-8.328706 l -42.16115,-3.7e-4 c -2.08203,0 -3.77347,0.39103 -5.07475,1.171793 z m 2.53736,3.57777 c 0.65064,-0.390382 1.49646,-0.585013 2.53747,-0.585013 l 42.16115,3.7e-4 c 2.77605,0 4.1642,1.387757 4.1642,4.163804 l 8e-5,66.38179 c 0,2.77605 -1.38842,4.16463 -4.16447,4.16463 l -42.16114,-3.7e-4 c -2.77605,0 -4.1642,-1.38776 -4.1642,-4.1638 l 5.8e-4,-66.382227 c 0,-1.735029 0.54194,-2.928548 1.62633,-3.579184 z m 2.53712,3.578869 6.5e-4,29.009812 4.40672,-2.8e-4 -2.3e-4,-13.98439 13.60261,13.98474 5.79513,-4.5e-4 -15.26801,-15.47628 14.12266,-13.532661 -5.69079,-6.67e-4 -12.56151,12.249178 -7e-5,-12.248614 z m 15.91397,34.718942 c -1.36877,0.84826 -2.46289,2.2413 -3.28269,4.18019 -0.43954,1.04102 -0.65963,2.24412 -0.65963,3.60901 0,3.7014 1.44626,7.36786 4.33797,10.99986 l 11.10421,13.95012 10.96534,-13.95012 c 2.89172,-3.67826 4.33784,-7.34443 4.33784,-10.99956 0,-1.36489 -0.2202,-2.56791 -0.65974,-3.60893 -1.4343,-3.44692 -3.75942,-5.17036 -6.975,-5.17036 -1.94324,0 -3.63161,0.82123 -5.06589,2.46372 -1.27236,1.43429 -2.16308,3.51606 -2.67202,6.24584 -0.50894,-2.66038 -1.39971,-4.74236 -2.67206,-6.24606 -1.38803,-1.64249 -3.07677,-2.46351 -5.06627,-2.46351 -1.3967,0 -2.62746,0.33004 -3.69206,0.9898 z"
           style="font-size:71.0668px;font-family:'DejaVu Sans';-inkscape-font-specification:'DejaVu Sans, Normal';fill:#ff0000;stroke-width:0.264583"
           id="path2" />
      </g>
      <g
         id="g1">
        <path
           style="font-size:71.0668px;font-family:Elephant;-inkscape-font-specification:'Elephant, Normal';display:inline;fill:#ffffff;fill-opacity:1;stroke:#ffffff;stroke-width:3.965;stroke-dasharray:none;stroke-opacity:1;filter:url(#filter9315)"
           d="m 202.09016,-8.5978235 c -5.55208,0 -8.32817,2.7761 -8.32817,8.32817401 V 66.112349 c 0,5.55205 2.77609,8.32817 8.32817,8.32817 h 42.16123 c 5.55205,0 8.32817,-2.77612 8.32817,-8.32817 V -0.26964949 c 0,-5.55207401 -2.77612,-8.32817401 -8.32817,-8.32817401 z"
           id="text402-1"
           transform="matrix(0.51325682,0.39867185,-0.39867185,0.51325682,-1.9166987,-15.018455)" />
        <path
           d="m 101.67751,59.684729 c -1.44636,9.27e-4 -2.791885,0.80261 -4.036958,2.405538 L 71.176017,96.161572 c -2.213463,2.84965 -1.895703,5.381418 0.953947,7.594888 l 21.639506,16.80827 c 2.84965,2.21347 5.381422,1.89519 7.59489,-0.95446 l 26.46453,-34.070788 c 2.21346,-2.84965 1.8957,-5.381422 -0.95395,-7.594886 L 105.23544,61.13632 c -1.24672,-0.96839 -2.43297,-1.452312 -3.55793,-1.451591 z m 0.11886,2.862874 c 0.56248,-3.6e-4 1.15534,0.241859 1.7787,0.726054 l 21.63951,16.808277 c 1.42482,1.106731 1.5837,2.372359 0.47697,3.797184 L 99.227018,117.95042 c -1.106732,1.42483 -2.372359,1.58371 -3.797184,0.47698 L 73.790328,101.61912 c -1.424825,-1.10673 -1.584222,-2.372359 -0.47749,-3.797184 L 99.777889,63.750631 c 0.622541,-0.801464 1.295301,-1.202564 2.018481,-1.203028 z m 4.94544,6.612 -16.69511,10.905277 2.351278,1.826245 4.226615,-2.941939 5.877677,4.565096 -1.80506,4.823478 2.35128,1.826246 6.43578,-18.873784 z m -0.03,2.832385 -3.52071,9.458854 -4.772838,-3.707267 z M 95.891821,89.552157 c -0.940193,-0.02115 -1.940772,0.265316 -3.001884,0.859379 -0.640624,0.359074 -1.233009,0.889028 -1.777152,1.589567 -1.475643,1.899766 -2.195262,4.358267 -2.159042,7.37526 l 0.137977,11.586377 11.1895,-2.78795 c 2.95061,-0.73504 5.15428,-2.04053 6.61148,-3.91655 0.54414,-0.70054 0.91077,-1.40558 1.10019,-2.11512 0.63804,-2.340968 0.13217,-4.15233 -1.51825,-5.434294 -0.99738,-0.774713 -2.19175,-1.026719 -3.58273,-0.75551 -1.22485,0.228908 -2.51227,0.942263 -3.861779,2.140438 0.799401,-1.568357 1.172359,-2.992025 1.118799,-4.271057 -0.0576,-1.396389 -0.596869,-2.49088 -1.617993,-3.284037 -0.819275,-0.636371 -1.698923,-0.96535 -2.639116,-0.986503 z"
           style="font-size:71.0668px;font-family:'DejaVu Sans';-inkscape-font-specification:'DejaVu Sans, Normal';display:inline;fill:#ff0000;stroke-width:0.264583"
           id="path1" />
      </g>
    </g>
    <g
       aria-label="🂱"
       id="text402-7"
       style="font-size:71.0668px;font-family:Elephant;-inkscape-font-specification:'Elephant, Normal';fill:#ff0000;stroke-width:0.264583"
       transform="translate(79.375004)" />
  </g>
</svg>
