<?xml version="1.0" encoding="UTF-8" standalone="no"?>
<!-- Created with Inkscape (http://www.inkscape.org/) -->

<svg
   width="512"
   height="512"
   viewBox="0 0 135.46666 135.46667"
   version="1.1"
   id="svg5"
   inkscape:version="1.3.2 (091e20e, 2023-11-25, custom)"
   sodipodi:docname="icon3.svg"
   inkscape:export-filename="maskable256.png"
   inkscape:export-xdpi="48"
   inkscape:export-ydpi="48"
   xmlns:inkscape="http://www.inkscape.org/namespaces/inkscape"
   xmlns:sodipodi="http://sodipodi.sourceforge.net/DTD/sodipodi-0.dtd"
   xmlns="http://www.w3.org/2000/svg"
   xmlns:svg="http://www.w3.org/2000/svg">
  <sodipodi:namedview
     id="namedview7"
     pagecolor="#434343"
     bordercolor="#000000"
     borderopacity="0.25"
     inkscape:showpageshadow="2"
     inkscape:pageopacity="0.0"
     inkscape:pagecheckerboard="true"
     inkscape:deskcolor="#d1d1d1"
     inkscape:document-units="mm"
     showgrid="false"
     inkscape:zoom="0.914906"
     inkscape:cx="212.04364"
     inkscape:cy="463.43559"
     inkscape:window-width="2560"
     inkscape:window-height="1334"
     inkscape:window-x="-11"
     inkscape:window-y="-11"
     inkscape:window-maximized="1"
     inkscape:current-layer="layer1" />
  <defs
     id="defs2">
    <marker
       style="overflow:visible"
       id="marker2617-1"
       refX="0"
       refY="0"
       orient="auto-start-reverse"
       inkscape:stockid="TriangleStart"
       markerWidth="1.7503999"
       markerHeight="2.188"
       viewBox="0 0 5.3244081 6.1553851"
       inkscape:isstock="true"
       inkscape:collect="always"
       preserveAspectRatio="xMidYMid">
      <path
         transform="scale(0.5)"
         style="fill:context-stroke;fill-rule:evenodd;stroke:context-stroke;stroke-width:1pt"
         d="M 5.77,0 -2.88,5 V -5 Z"
         id="path2615-0" />
    </marker>
    <marker
       style="overflow:visible"
       id="TriangleStart-4"
       refX="0"
       refY="0"
       orient="auto-start-reverse"
       inkscape:stockid="TriangleStart"
       markerWidth="1.7503999"
       markerHeight="2.188"
       viewBox="0 0 5.3244081 6.1553851"
       inkscape:isstock="true"
       inkscape:collect="always"
       preserveAspectRatio="xMidYMid">
      <path
         transform="scale(0.5)"
         style="fill:context-stroke;fill-rule:evenodd;stroke:context-stroke;stroke-width:1pt"
         d="M 5.77,0 -2.88,5 V -5 Z"
         id="path135-8" />
    </marker>
  </defs>
  <g
     inkscape:label="Layer 1"
     inkscape:groupmode="layer"
     id="layer1">
    <path
       id="path22-2"
       style="fill:#434343;fill-opacity:1;stroke:#434343;stroke-width:5.29167;stroke-linecap:round;stroke-dasharray:none;stroke-opacity:1"
       d="M 61.115234,5.3176091 C 54.992099,15.913612 48.864465,26.507146 42.744141,37.1047 h 9.251953 c -0.0457,13.113879 -0.03767,23.052853 -0.05078,36.166791 -2.950063,1.585925 -6.232589,2.770122 -9.629218,2.582104 -3.662591,-0.02769 -7.603411,-0.728265 -10.346866,-3.344631 -3.166801,-2.951773 -4.536246,-7.252211 -5.40336,-11.377257 -1.317925,-6.960413 -1.213107,-14.088702 -1.028501,-21.14279 0.134454,-4.900527 0.497209,-9.793444 0.661334,-14.691131 -0.07715,-3.978376 -3.080813,-7.659207 -6.968606,-8.519517 -2.783347,-0.675276 -5.863095,0.0723 -8.029389,1.94886 -1.8115801,1.54194 -2.9677283,3.821687 -3.1407874,6.197217 C 7.3841755,36.29529 6.4193963,47.76507 7.8245157,59.122113 c 0.9881846,7.957862 3.1341203,16.044332 8.0060093,22.551388 3.611067,4.921254 8.838063,8.559348 14.628681,10.443672 5.74022,1.872215 11.930201,2.408447 17.899149,1.503045 1.4469,-0.226413 2.87637,-0.557001 4.282272,-0.965914 1.040798,8.997826 3.383087,18.094676 8.541768,25.657266 5.391825,7.98442 14.342006,13.41115 23.907671,14.53357 7.887393,1.0295 15.883424,-0.45046 23.353914,-2.99519 3.34306,-1.1317 6.7035,-2.46608 9.51323,-4.6437 3.08906,-2.565 4.06238,-7.26702 2.25633,-10.85081 -1.16848,-2.39649 -3.4199,-4.2322 -6.01636,-4.85546 -2.28557,-0.57087 -4.78831,-0.20197 -6.80851,1.01565 -0.49669,0.12065 -1.24151,0.55703 -1.83008,0.79688 -5.27309,2.44412 -11.113478,3.87681 -16.948414,3.59675 -3.73136,-0.20893 -7.59617,-1.38801 -10.224,-4.17117 -4.003539,-4.11151 -5.80629,-9.78283 -6.908455,-15.289556 -0.731663,-3.741434 -1.080124,-7.540969 -1.24725,-11.34501 6.242793,-3.25062 13.048456,-5.348228 20.006518,-6.377822 2.603255,-0.409278 5.226456,-0.677495 7.852857,-0.885851 v 8.933594 C 108.699,79.645746 119.30513,73.512446 129.91211,67.380866 119.30513,61.248642 108.699,55.114681 98.089846,48.986335 v 9.671876 C 88.589832,59.335778 79.096891,61.014705 70.14844,64.349616 70.15694,54.209636 70.16033,47.244648 70.1875,37.1047 h 9.345703 C 73.404852,26.494246 67.270902,15.886812 61.138672,5.2785491 Z"
       sodipodi:nodetypes="cccccccccccccccccccccccccccccccccccccccc" />
    <path
       style="fill:none;stroke:#b50027;stroke-width:13.8112;stroke-linecap:round;stroke-dasharray:none;stroke-opacity:1;marker-end:url(#TriangleStart-4)"
       d="m -97.348002,35.351678 c -0.945923,18.290832 -3.912028,45.189977 19.653163,45.189977 13.728483,0 15.975498,-13.385898 50.089892,-13.385898"
       id="path1942-2"
       sodipodi:nodetypes="csc" />
    <path
       style="fill:none;stroke:#105cff;stroke-width:13.8112;stroke-linecap:round;stroke-dasharray:none;stroke-opacity:1;marker-start:url(#marker2617-1)"
       d="m -63.818654,33.608595 c 0,15.156129 -0.08044,-5.172159 -0.08044,43.070942 0,48.243103 36.205965,30.950113 38.837738,29.267233"
       id="path1944-5"
       sodipodi:nodetypes="czc" />
    <path
       id="rect4"
       style="fill:#000000;fill-opacity:1;stroke-width:18.9136"
       d="M 153.45837,0 V 135.46667 H 288.92513 V 0 Z m 67.73334,13.49375 A 54.239582,54.239582 0 0 1 275.43133,67.733333 54.239582,54.239582 0 0 1 221.19171,121.97292 54.239582,54.239582 0 0 1 166.95218,67.733333 54.239582,54.239582 0 0 1 221.19171,13.49375 Z" />
    <g
       id="g22"
       transform="matrix(1.3130827,0,0,1.3130827,-21.824032,-20.801168)">
      <path
         d="m 56.725736,86.379224 c -0.34191,-2.991951 -0.5302,-6.205046 -0.5302,-9.699667 0,-3.865847 0.0053,-1.977767 0.0062,-5.024499 -2.392956,1.237693 -4.344193,1.981791 -6.897253,1.981791 -4.577518,0 -6.771773,-1.089182 -8.443412,-2.642733 -1.67164,-1.553549 -3.000833,-4.089471 -3.84731,-7.746297 C 35.32081,55.934165 36.065503,45.051738 36.548674,35.708931 a 6.9056001,6.9056001 0 0 0 -6.540687,-7.25382 6.9056001,6.9056001 0 0 0 -7.25227,6.539135 c -0.462751,8.947971 -1.67575,20.660573 0.803052,31.369145 1.239399,5.354287 3.529945,10.686325 7.900293,14.747937 4.370346,4.061612 10.640381,6.336047 17.845422,6.336047 2.767522,0 5.20237,-0.413418 7.421252,-1.068151 z"
         style="fill:#b50027;stroke-linecap:round"
         id="path22" />
      <path
         d="m 70.021566,64.877177 c -0.0043,4.950912 -0.0155,2.705853 -0.0155,11.80238 0,1.124272 0.03658,2.168305 0.07803,3.200839 4.772329,-2.421274 10.636909,-4.75632 21.259684,-5.540748 v 6.78925 L 115.5175,67.156108 91.343778,53.181767 v 7.350972 C 82.2381,61.173796 75.395559,62.875071 70.021566,64.877177 Z"
         style="fill:#105cff;fill-opacity:1;stroke-linecap:round"
         id="path19" />
      <path
         d="m 70.084094,79.880396 c -0.07636,0.03874 -0.158799,0.07697 -0.234611,0.115755 -4.10377,2.099193 -8.039705,4.882906 -13.123747,6.383073 0.922611,8.073474 3.056813,14.403686 6.332947,19.302176 4.490239,6.71384 11.209184,10.18832 17.386536,11.174 6.177353,0.98568 11.85822,-0.0707 16.257922,-1.36116 4.399709,-1.29041 6.764949,-2.33009 8.955009,-3.73052 a 6.9056001,6.9056001 0 0 0 2.09755,-9.5374 6.9056001,6.9056001 0 0 0 -9.536889,-2.09755 c 0.87418,-0.558987 -2.273175,1.19583 -5.402254,2.11357 -3.129079,0.91774 -6.992162,1.48571 -10.195244,0.97462 -3.203081,-0.5111 -5.70159,-1.6557 -8.082194,-5.215187 -2.141569,-3.20209 -4.08363,-8.870584 -4.455025,-18.121377 z"
         style="fill:#105cff;stroke-linecap:round"
         id="path21" />
      <path
         d="M 63.181673,19.902178 49.206816,44.077963 h 7.033162 c -0.01889,1.965677 -0.03314,9.388824 -0.03824,27.577095 1.937138,-1.001933 4.142446,-2.308547 7.358724,-3.953764 1.878718,-0.961017 4.035001,-1.920261 6.461105,-2.824117 0.0085,-9.739242 0.01497,-19.285024 0.02997,-20.799214 h 7.104476 z"
         style="fill:#b50027;fill-opacity:1;stroke-linecap:round"
         id="path18"
         sodipodi:nodetypes="ccccscccc" />
      <path
         d="m 70.021566,64.877177 c -2.426104,0.903856 -4.582387,1.8631 -6.461105,2.824117 -3.216278,1.645217 -5.421586,2.951831 -7.358724,3.953764 -8.54e-4,3.046732 -0.0062,1.158652 -0.0062,5.024499 0,3.494621 0.18829,6.707716 0.5302,9.699667 5.084042,-1.500167 9.019977,-4.28388 13.123747,-6.383073 0.07581,-0.03878 0.158252,-0.07701 0.234611,-0.115755 -0.04145,-1.032534 -0.07803,-2.076567 -0.07803,-3.200839 0,-9.096527 0.0112,-6.851468 0.0155,-11.80238 z"
         style="fill:#9a10ff;fill-opacity:1;stroke:#434343;stroke-width:3.96875;stroke-linecap:round;stroke-dasharray:none;stroke-opacity:1;paint-order:stroke fill markers"
         id="path20" />
    </g>
    <path
       d="m 56.725736,218.67091 c -0.34191,-2.99195 -0.5302,-6.20504 -0.5302,-9.69966 0,-3.86585 0.0053,-1.97777 0.0062,-5.0245 -2.392956,1.23769 -4.344193,1.98179 -6.897253,1.98179 -4.577518,0 -6.771773,-1.08918 -8.443412,-2.64273 -1.67164,-1.55355 -3.000833,-4.08948 -3.84731,-7.7463 -1.692951,-7.31366 -0.948258,-18.19608 -0.465087,-27.53889 a 6.9056001,6.9056001 0 0 0 -6.540687,-7.25382 6.9056001,6.9056001 0 0 0 -7.25227,6.53914 c -0.462751,8.94797 -1.67575,20.66057 0.803052,31.36914 1.239399,5.35429 3.529945,10.68633 7.900293,14.74794 4.370346,4.06161 10.640381,6.33604 17.845422,6.33604 2.767522,0 5.20237,-0.41341 7.421252,-1.06815 z"
       style="fill:#b50027;stroke-linecap:round"
       id="path22-7" />
    <path
       d="m 70.021566,197.16887 c -0.0043,4.95091 -0.0155,2.70585 -0.0155,11.80238 0,1.12427 0.03658,2.1683 0.07803,3.20084 4.772329,-2.42128 10.636909,-4.75632 21.259684,-5.54075 v 6.78925 L 115.5175,199.4478 91.343778,185.47346 v 7.35097 c -9.105678,0.64106 -15.948219,2.34233 -21.322212,4.34444 z"
       style="fill:#105cff;fill-opacity:1;stroke-linecap:round"
       id="path19-8" />
    <path
       d="m 70.084094,212.17209 c -0.07636,0.0387 -0.158799,0.077 -0.234611,0.11575 -4.10377,2.09919 -8.039705,4.88291 -13.123747,6.38307 0.922611,8.07348 3.056813,14.40369 6.332947,19.30218 4.490239,6.71384 11.209184,10.18832 17.386536,11.174 6.177353,0.98568 11.85822,-0.0707 16.257922,-1.36116 4.399709,-1.29041 6.764949,-2.33009 8.955009,-3.73052 a 6.9056001,6.9056001 0 0 0 2.09755,-9.5374 6.9056001,6.9056001 0 0 0 -9.536889,-2.09755 c 0.87418,-0.55899 -2.273175,1.19583 -5.402254,2.11357 -3.129079,0.91774 -6.992162,1.48571 -10.195244,0.97462 -3.203081,-0.5111 -5.70159,-1.6557 -8.082194,-5.21519 -2.141569,-3.20209 -4.08363,-8.87058 -4.455025,-18.12137 z"
       style="fill:#105cff;stroke-linecap:round"
       id="path21-5" />
    <path
       d="m 63.181673,149.77589 -13.974857,24.17579 h 7.033162 c -0.01889,1.96568 -0.03314,11.8068 -0.03824,29.99507 1.937138,-1.00194 4.142446,-2.30855 7.358724,-3.95377 1.878718,-0.96101 4.035001,-1.92026 6.461105,-2.82411 0.0085,-9.73925 0.01497,-21.703 0.02997,-23.21719 h 7.104476 z"
       style="fill:#b50027;fill-opacity:1;stroke-linecap:round"
       id="path18-7" />
    <path
       d="m 70.021566,197.16887 c -2.426104,0.90385 -4.582387,1.8631 -6.461105,2.82411 -3.216278,1.64522 -5.421586,2.95183 -7.358724,3.95377 -8.54e-4,3.04673 -0.0062,1.15865 -0.0062,5.0245 0,3.49462 0.18829,6.70771 0.5302,9.69966 5.084042,-1.50016 9.019977,-4.28388 13.123747,-6.38307 0.07581,-0.0388 0.158252,-0.077 0.234611,-0.11575 -0.04145,-1.03254 -0.07803,-2.07657 -0.07803,-3.20084 0,-9.09653 0.0112,-6.85147 0.0155,-11.80238 z"
       style="fill:#9a10ff;fill-opacity:1;stroke:#434343;stroke-width:3.96875;stroke-linecap:round;stroke-dasharray:none;stroke-opacity:1;paint-order:stroke fill markers"
       id="path20-3" />
  </g>
</svg>
